<mxfile host="app.diagrams.net" modified="2023-10-12T01:54:10.271Z" agent="Mozilla/5.0 (Windows NT 10.0; Win64; x64) AppleWebKit/537.36 (KHTML, like Gecko) Chrome/117.0.0.0 Safari/537.36 Edg/117.0.2045.36" etag="L1HL0GYwrF--Zai80oFR" version="22.0.4" type="device">
  <diagram id="yPxyJZ8AM_hMuL3Unpa9" name="gitflow">
    <mxGraphModel dx="1386" dy="808" grid="1" gridSize="10" guides="1" tooltips="1" connect="1" arrows="1" fold="1" page="1" pageScale="1" pageWidth="850" pageHeight="1100" math="0" shadow="0">
      <root>
        <mxCell id="0" />
        <mxCell id="1" parent="0" />
        <mxCell id="B7Z5bQgwyDmxNRHCM2Lo-182" value="" style="edgeStyle=orthogonalEdgeStyle;rounded=0;orthogonalLoop=1;jettySize=auto;html=1;endArrow=classic;endFill=1;fontFamily=Fira Sans;fontSource=https%3A%2F%2Ffonts.googleapis.com%2Fcss%3Ffamily%3DFira%2BSans;" parent="1" source="B7Z5bQgwyDmxNRHCM2Lo-179" target="B7Z5bQgwyDmxNRHCM2Lo-181" edge="1">
          <mxGeometry relative="1" as="geometry" />
        </mxCell>
        <mxCell id="B7Z5bQgwyDmxNRHCM2Lo-185" value="&lt;font data-font-src=&quot;https://fonts.googleapis.com/css?family=Fira+Sans&quot;&gt;Label individuals and&lt;br&gt;draw bounding boxes&lt;/font&gt;" style="edgeLabel;html=1;align=center;verticalAlign=middle;resizable=0;points=[];fontFamily=Fira Sans;fontSource=https%3A%2F%2Ffonts.googleapis.com%2Fcss%3Ffamily%3DFira%2BSans;" parent="B7Z5bQgwyDmxNRHCM2Lo-182" vertex="1" connectable="0">
          <mxGeometry x="-0.125" y="1" relative="1" as="geometry">
            <mxPoint x="7" y="2" as="offset" />
          </mxGeometry>
        </mxCell>
        <mxCell id="B7Z5bQgwyDmxNRHCM2Lo-179" value="" style="ellipse;whiteSpace=wrap;html=1;fillColor=#0496FF;strokeColor=none;gradientColor=none;rounded=0;fontFamily=Fira Sans;fontSource=https%3A%2F%2Ffonts.googleapis.com%2Fcss%3Ffamily%3DFira%2BSans;" parent="1" vertex="1">
          <mxGeometry x="246" y="75" width="50" height="50" as="geometry" />
        </mxCell>
        <mxCell id="B7Z5bQgwyDmxNRHCM2Lo-184" value="" style="edgeStyle=orthogonalEdgeStyle;rounded=0;orthogonalLoop=1;jettySize=auto;html=1;endArrow=classic;endFill=1;fontFamily=Fira Sans;fontSource=https%3A%2F%2Ffonts.googleapis.com%2Fcss%3Ffamily%3DFira%2BSans;" parent="1" source="B7Z5bQgwyDmxNRHCM2Lo-181" target="B7Z5bQgwyDmxNRHCM2Lo-183" edge="1">
          <mxGeometry relative="1" as="geometry" />
        </mxCell>
        <mxCell id="B7Z5bQgwyDmxNRHCM2Lo-191" value="&lt;font data-font-src=&quot;https://fonts.googleapis.com/css?family=Fira+Sans&quot;&gt;Create annotation file&lt;/font&gt;" style="edgeLabel;html=1;align=center;verticalAlign=middle;resizable=0;points=[];fontFamily=Fira Sans;fontSource=https%3A%2F%2Ffonts.googleapis.com%2Fcss%3Ffamily%3DFira%2BSans;" parent="B7Z5bQgwyDmxNRHCM2Lo-184" vertex="1" connectable="0">
          <mxGeometry x="0.0095" relative="1" as="geometry">
            <mxPoint x="-5" as="offset" />
          </mxGeometry>
        </mxCell>
        <mxCell id="B7Z5bQgwyDmxNRHCM2Lo-181" value="" style="ellipse;whiteSpace=wrap;html=1;fillColor=#0496FF;strokeColor=none;gradientColor=none;rounded=0;fontFamily=Fira Sans;fontSource=https%3A%2F%2Ffonts.googleapis.com%2Fcss%3Ffamily%3DFira%2BSans;" parent="1" vertex="1">
          <mxGeometry x="496" y="75" width="50" height="50" as="geometry" />
        </mxCell>
        <mxCell id="1w1bXeT0Ze49yQfpAvAs-45" value="" style="edgeStyle=orthogonalEdgeStyle;rounded=0;orthogonalLoop=1;jettySize=auto;html=1;fontFamily=Fira Sans;fontSource=https%3A%2F%2Ffonts.googleapis.com%2Fcss%3Ffamily%3DFira%2BSans;" parent="1" source="B7Z5bQgwyDmxNRHCM2Lo-183" target="1w1bXeT0Ze49yQfpAvAs-44" edge="1">
          <mxGeometry relative="1" as="geometry" />
        </mxCell>
        <mxCell id="1w1bXeT0Ze49yQfpAvAs-46" value="Train model with&lt;br&gt;annotation file" style="edgeLabel;html=1;align=center;verticalAlign=middle;resizable=0;points=[];fontFamily=Fira Sans;fontSource=https%3A%2F%2Ffonts.googleapis.com%2Fcss%3Ffamily%3DFira%2BSans;" parent="1w1bXeT0Ze49yQfpAvAs-45" vertex="1" connectable="0">
          <mxGeometry x="0.125" y="-1" relative="1" as="geometry">
            <mxPoint x="1" y="-10" as="offset" />
          </mxGeometry>
        </mxCell>
        <mxCell id="B7Z5bQgwyDmxNRHCM2Lo-183" value="" style="ellipse;whiteSpace=wrap;html=1;fillColor=#0496FF;strokeColor=none;gradientColor=none;rounded=0;labelBackgroundColor=none;fontFamily=Fira Sans;fontSource=https%3A%2F%2Ffonts.googleapis.com%2Fcss%3Ffamily%3DFira%2BSans;" parent="1" vertex="1">
          <mxGeometry x="686" y="75" width="50" height="50" as="geometry" />
        </mxCell>
        <mxCell id="B7Z5bQgwyDmxNRHCM2Lo-207" value="" style="edgeStyle=orthogonalEdgeStyle;rounded=0;orthogonalLoop=1;jettySize=auto;html=1;dashed=1;dashPattern=1 2;endArrow=openThin;endFill=0;exitX=0.5;exitY=1;exitDx=0;exitDy=0;fontFamily=Fira Sans;fontSource=https%3A%2F%2Ffonts.googleapis.com%2Fcss%3Ffamily%3DFira%2BSans;entryX=0.5;entryY=1;entryDx=0;entryDy=0;" parent="1" source="1w1bXeT0Ze49yQfpAvAs-47" target="1w1bXeT0Ze49yQfpAvAs-44" edge="1">
          <mxGeometry relative="1" as="geometry">
            <mxPoint x="766" y="170" as="targetPoint" />
            <Array as="points">
              <mxPoint x="395" y="300" />
              <mxPoint x="711" y="300" />
            </Array>
            <mxPoint x="558.5999999999999" y="260" as="sourcePoint" />
          </mxGeometry>
        </mxCell>
        <mxCell id="B7Z5bQgwyDmxNRHCM2Lo-208" value="Tune hyperparameters" style="edgeLabel;html=1;align=center;verticalAlign=middle;resizable=0;points=[];fontFamily=Fira Sans;fontSource=https%3A%2F%2Ffonts.googleapis.com%2Fcss%3Ffamily%3DFira%2BSans;" parent="B7Z5bQgwyDmxNRHCM2Lo-207" vertex="1" connectable="0">
          <mxGeometry x="0.158" y="1" relative="1" as="geometry">
            <mxPoint x="-25" as="offset" />
          </mxGeometry>
        </mxCell>
        <mxCell id="1w1bXeT0Ze49yQfpAvAs-48" value="" style="edgeStyle=orthogonalEdgeStyle;rounded=0;orthogonalLoop=1;jettySize=auto;html=1;fontFamily=Fira Sans;fontSource=https%3A%2F%2Ffonts.googleapis.com%2Fcss%3Ffamily%3DFira%2BSans;" parent="1" source="1w1bXeT0Ze49yQfpAvAs-44" target="1w1bXeT0Ze49yQfpAvAs-47" edge="1">
          <mxGeometry relative="1" as="geometry" />
        </mxCell>
        <mxCell id="1w1bXeT0Ze49yQfpAvAs-49" value="Validate" style="edgeLabel;html=1;align=center;verticalAlign=middle;resizable=0;points=[];fontFamily=Fira Sans;fontSource=https%3A%2F%2Ffonts.googleapis.com%2Fcss%3Ffamily%3DFira%2BSans;" parent="1w1bXeT0Ze49yQfpAvAs-48" vertex="1" connectable="0">
          <mxGeometry x="0.15" relative="1" as="geometry">
            <mxPoint x="32" as="offset" />
          </mxGeometry>
        </mxCell>
        <mxCell id="1w1bXeT0Ze49yQfpAvAs-44" value="" style="ellipse;whiteSpace=wrap;html=1;fillColor=#FFBC42;strokeColor=none;gradientColor=none;rounded=0;labelBackgroundColor=none;fontFamily=Fira Sans;fontSource=https%3A%2F%2Ffonts.googleapis.com%2Fcss%3Ffamily%3DFira%2BSans;" parent="1" vertex="1">
          <mxGeometry x="686" y="205" width="50" height="50" as="geometry" />
        </mxCell>
        <mxCell id="1w1bXeT0Ze49yQfpAvAs-51" value="" style="edgeStyle=orthogonalEdgeStyle;rounded=0;orthogonalLoop=1;jettySize=auto;html=1;exitX=0;exitY=0.5;exitDx=0;exitDy=0;fontFamily=Fira Sans;fontSource=https%3A%2F%2Ffonts.googleapis.com%2Fcss%3Ffamily%3DFira%2BSans;" parent="1" source="1w1bXeT0Ze49yQfpAvAs-47" target="1w1bXeT0Ze49yQfpAvAs-50" edge="1">
          <mxGeometry relative="1" as="geometry">
            <mxPoint x="296" y="230" as="sourcePoint" />
          </mxGeometry>
        </mxCell>
        <mxCell id="1w1bXeT0Ze49yQfpAvAs-52" value="Test" style="edgeLabel;html=1;align=center;verticalAlign=middle;resizable=0;points=[];fontFamily=Fira Sans;fontSource=https%3A%2F%2Ffonts.googleapis.com%2Fcss%3Ffamily%3DFira%2BSans;" parent="1w1bXeT0Ze49yQfpAvAs-51" vertex="1" connectable="0">
          <mxGeometry x="0.1" relative="1" as="geometry">
            <mxPoint x="15" as="offset" />
          </mxGeometry>
        </mxCell>
        <mxCell id="1w1bXeT0Ze49yQfpAvAs-54" value="" style="edgeStyle=orthogonalEdgeStyle;rounded=0;orthogonalLoop=1;jettySize=auto;html=1;fontFamily=Fira Sans;fontSource=https%3A%2F%2Ffonts.googleapis.com%2Fcss%3Ffamily%3DFira%2BSans;dashed=1;dashPattern=1 2;endArrow=openThin;endFill=0;" parent="1" edge="1">
          <mxGeometry relative="1" as="geometry">
            <mxPoint x="395" y="205" as="sourcePoint" />
            <mxPoint x="395" y="120" as="targetPoint" />
            <Array as="points">
              <mxPoint x="395" y="120" />
            </Array>
          </mxGeometry>
        </mxCell>
        <mxCell id="1w1bXeT0Ze49yQfpAvAs-55" value="Review validation results&lt;br&gt;and clean data" style="edgeLabel;html=1;align=center;verticalAlign=middle;resizable=0;points=[];fontFamily=Fira Sans;fontSource=https%3A%2F%2Ffonts.googleapis.com%2Fcss%3Ffamily%3DFira%2BSans;" parent="1w1bXeT0Ze49yQfpAvAs-54" vertex="1" connectable="0">
          <mxGeometry x="-0.2042" y="-2" relative="1" as="geometry">
            <mxPoint y="-1" as="offset" />
          </mxGeometry>
        </mxCell>
        <mxCell id="1w1bXeT0Ze49yQfpAvAs-47" value="" style="ellipse;whiteSpace=wrap;html=1;fillColor=#FFBC42;strokeColor=none;gradientColor=none;rounded=0;labelBackgroundColor=none;fontFamily=Fira Sans;fontSource=https%3A%2F%2Ffonts.googleapis.com%2Fcss%3Ffamily%3DFira%2BSans;" parent="1" vertex="1">
          <mxGeometry x="370" y="205" width="50" height="50" as="geometry" />
        </mxCell>
        <mxCell id="1w1bXeT0Ze49yQfpAvAs-57" value="" style="edgeStyle=orthogonalEdgeStyle;rounded=0;orthogonalLoop=1;jettySize=auto;html=1;fontFamily=Fira Sans;fontSource=https%3A%2F%2Ffonts.googleapis.com%2Fcss%3Ffamily%3DFira%2BSans;" parent="1" source="1w1bXeT0Ze49yQfpAvAs-50" target="1w1bXeT0Ze49yQfpAvAs-56" edge="1">
          <mxGeometry relative="1" as="geometry" />
        </mxCell>
        <mxCell id="1w1bXeT0Ze49yQfpAvAs-58" value="Use model to predict&lt;br&gt;novel images" style="edgeLabel;html=1;align=center;verticalAlign=middle;resizable=0;points=[];fontFamily=Fira Sans;fontSource=https%3A%2F%2Ffonts.googleapis.com%2Fcss%3Ffamily%3DFira%2BSans;" parent="1w1bXeT0Ze49yQfpAvAs-57" vertex="1" connectable="0">
          <mxGeometry x="-0.275" y="-1" relative="1" as="geometry">
            <mxPoint y="6" as="offset" />
          </mxGeometry>
        </mxCell>
        <mxCell id="1w1bXeT0Ze49yQfpAvAs-50" value="" style="ellipse;whiteSpace=wrap;html=1;fillColor=#FFBC42;strokeColor=none;gradientColor=none;rounded=0;labelBackgroundColor=none;fontFamily=Fira Sans;fontSource=https%3A%2F%2Ffonts.googleapis.com%2Fcss%3Ffamily%3DFira%2BSans;" parent="1" vertex="1">
          <mxGeometry x="166" y="205" width="50" height="50" as="geometry" />
        </mxCell>
        <mxCell id="1w1bXeT0Ze49yQfpAvAs-60" value="" style="edgeStyle=orthogonalEdgeStyle;rounded=0;orthogonalLoop=1;jettySize=auto;html=1;fontFamily=Fira Sans;fontSource=https%3A%2F%2Ffonts.googleapis.com%2Fcss%3Ffamily%3DFira%2BSans;" parent="1" source="1w1bXeT0Ze49yQfpAvAs-56" target="1w1bXeT0Ze49yQfpAvAs-59" edge="1">
          <mxGeometry relative="1" as="geometry" />
        </mxCell>
        <mxCell id="1w1bXeT0Ze49yQfpAvAs-61" value="Verify results with expert" style="edgeLabel;html=1;align=center;verticalAlign=middle;resizable=0;points=[];fontFamily=Fira Sans;fontSource=https%3A%2F%2Ffonts.googleapis.com%2Fcss%3Ffamily%3DFira%2BSans;" parent="1w1bXeT0Ze49yQfpAvAs-60" vertex="1" connectable="0">
          <mxGeometry x="-0.1333" relative="1" as="geometry">
            <mxPoint x="5" as="offset" />
          </mxGeometry>
        </mxCell>
        <mxCell id="1w1bXeT0Ze49yQfpAvAs-56" value="" style="ellipse;whiteSpace=wrap;html=1;fillColor=#D91B11;strokeColor=none;gradientColor=none;rounded=0;labelBackgroundColor=none;fontFamily=Fira Sans;fontSource=https%3A%2F%2Ffonts.googleapis.com%2Fcss%3Ffamily%3DFira%2BSans;" parent="1" vertex="1">
          <mxGeometry x="166" y="335" width="50" height="50" as="geometry" />
        </mxCell>
        <mxCell id="1w1bXeT0Ze49yQfpAvAs-63" value="" style="edgeStyle=orthogonalEdgeStyle;rounded=0;orthogonalLoop=1;jettySize=auto;html=1;fontFamily=Fira Sans;fontSource=https%3A%2F%2Ffonts.googleapis.com%2Fcss%3Ffamily%3DFira%2BSans;" parent="1" source="1w1bXeT0Ze49yQfpAvAs-59" target="1w1bXeT0Ze49yQfpAvAs-62" edge="1">
          <mxGeometry relative="1" as="geometry" />
        </mxCell>
        <mxCell id="1w1bXeT0Ze49yQfpAvAs-64" value="Format final outputs" style="edgeLabel;html=1;align=center;verticalAlign=middle;resizable=0;points=[];fontFamily=Fira Sans;fontSource=https%3A%2F%2Ffonts.googleapis.com%2Fcss%3Ffamily%3DFira%2BSans;" parent="1w1bXeT0Ze49yQfpAvAs-63" vertex="1" connectable="0">
          <mxGeometry x="-0.2" relative="1" as="geometry">
            <mxPoint x="6" as="offset" />
          </mxGeometry>
        </mxCell>
        <mxCell id="1w1bXeT0Ze49yQfpAvAs-59" value="" style="ellipse;whiteSpace=wrap;html=1;fillColor=#D91B11;strokeColor=none;gradientColor=none;rounded=0;labelBackgroundColor=none;fontFamily=Fira Sans;fontSource=https%3A%2F%2Ffonts.googleapis.com%2Fcss%3Ffamily%3DFira%2BSans;" parent="1" vertex="1">
          <mxGeometry x="383" y="335" width="50" height="50" as="geometry" />
        </mxCell>
        <mxCell id="1w1bXeT0Ze49yQfpAvAs-76" value="" style="edgeStyle=orthogonalEdgeStyle;rounded=0;orthogonalLoop=1;jettySize=auto;html=1;fontFamily=Fira Sans;fontSource=https%3A%2F%2Ffonts.googleapis.com%2Fcss%3Ffamily%3DFira%2BSans;dashed=1;dashPattern=1 2;endArrow=openThin;endFill=0;entryX=1;entryY=0.5;entryDx=0;entryDy=0;" parent="1" target="B7Z5bQgwyDmxNRHCM2Lo-183" edge="1">
          <mxGeometry relative="1" as="geometry">
            <mxPoint x="632" y="360" as="sourcePoint" />
            <mxPoint x="766" y="300" as="targetPoint" />
            <Array as="points">
              <mxPoint x="766" y="360" />
              <mxPoint x="766" y="100" />
            </Array>
          </mxGeometry>
        </mxCell>
        <mxCell id="1w1bXeT0Ze49yQfpAvAs-77" value="Update annotation file&lt;br&gt;for training" style="edgeLabel;html=1;align=center;verticalAlign=middle;resizable=0;points=[];fontFamily=Fira Sans;fontSource=https%3A%2F%2Ffonts.googleapis.com%2Fcss%3Ffamily%3DFira%2BSans;" parent="1w1bXeT0Ze49yQfpAvAs-76" vertex="1" connectable="0">
          <mxGeometry x="-0.1023" y="1" relative="1" as="geometry">
            <mxPoint x="-19" y="26" as="offset" />
          </mxGeometry>
        </mxCell>
        <mxCell id="1w1bXeT0Ze49yQfpAvAs-79" value="" style="edgeStyle=orthogonalEdgeStyle;rounded=0;orthogonalLoop=1;jettySize=auto;html=1;fontFamily=Fira Sans;fontSource=https%3A%2F%2Ffonts.googleapis.com%2Fcss%3Ffamily%3DFira%2BSans;" parent="1" source="1w1bXeT0Ze49yQfpAvAs-62" target="1w1bXeT0Ze49yQfpAvAs-78" edge="1">
          <mxGeometry relative="1" as="geometry" />
        </mxCell>
        <mxCell id="1w1bXeT0Ze49yQfpAvAs-85" value="Ready for analyses" style="edgeLabel;html=1;align=center;verticalAlign=middle;resizable=0;points=[];fontFamily=Fira Sans;fontSource=https%3A%2F%2Ffonts.googleapis.com%2Fcss%3Ffamily%3DFira%2BSans;" parent="1w1bXeT0Ze49yQfpAvAs-79" vertex="1" connectable="0">
          <mxGeometry x="-0.05" y="-2" relative="1" as="geometry">
            <mxPoint as="offset" />
          </mxGeometry>
        </mxCell>
        <mxCell id="1w1bXeT0Ze49yQfpAvAs-62" value="" style="ellipse;whiteSpace=wrap;html=1;fillColor=#D91B11;strokeColor=none;gradientColor=none;rounded=0;labelBackgroundColor=none;fontFamily=Fira Sans;fontSource=https%3A%2F%2Ffonts.googleapis.com%2Fcss%3Ffamily%3DFira%2BSans;" parent="1" vertex="1">
          <mxGeometry x="576" y="335" width="50" height="50" as="geometry" />
        </mxCell>
        <mxCell id="1w1bXeT0Ze49yQfpAvAs-65" value="" style="html=1;shape=mxgraph.basic.isocube;isoAngle=15;sketch=1;curveFitting=1;jiggle=2;fontFamily=Fira Sans;fontSource=https%3A%2F%2Ffonts.googleapis.com%2Fcss%3Ffamily%3DFira%2BSans;" parent="1" vertex="1">
          <mxGeometry x="701" y="220" width="20" height="20" as="geometry" />
        </mxCell>
        <mxCell id="1w1bXeT0Ze49yQfpAvAs-66" value="" style="html=1;shape=mxgraph.basic.isocube;isoAngle=15;sketch=1;curveFitting=1;jiggle=2;fontFamily=Fira Sans;fontSource=https%3A%2F%2Ffonts.googleapis.com%2Fcss%3Ffamily%3DFira%2BSans;" parent="1" vertex="1">
          <mxGeometry x="385" y="220" width="20" height="20" as="geometry" />
        </mxCell>
        <mxCell id="1w1bXeT0Ze49yQfpAvAs-67" value="" style="html=1;shape=mxgraph.basic.isocube;isoAngle=15;sketch=1;curveFitting=1;jiggle=2;fontFamily=Fira Sans;fontSource=https%3A%2F%2Ffonts.googleapis.com%2Fcss%3Ffamily%3DFira%2BSans;" parent="1" vertex="1">
          <mxGeometry x="181" y="220" width="20" height="20" as="geometry" />
        </mxCell>
        <mxCell id="1w1bXeT0Ze49yQfpAvAs-68" value="" style="verticalLabelPosition=bottom;verticalAlign=top;html=1;shape=mxgraph.basic.rect;fillColor2=none;strokeWidth=1;size=20;indent=5;shadow=0;sketch=1;curveFitting=1;jiggle=2;fontFamily=Fira Sans;fontSource=https%3A%2F%2Ffonts.googleapis.com%2Fcss%3Ffamily%3DFira%2BSans;" parent="1" vertex="1">
          <mxGeometry x="261" y="92.5" width="20" height="15" as="geometry" />
        </mxCell>
        <mxCell id="1w1bXeT0Ze49yQfpAvAs-70" value="" style="verticalLabelPosition=bottom;verticalAlign=top;html=1;shape=mxgraph.basic.rect;fillColor2=none;strokeWidth=1;size=20;indent=5;shadow=0;sketch=1;curveFitting=1;jiggle=2;fontFamily=Fira Sans;fontSource=https%3A%2F%2Ffonts.googleapis.com%2Fcss%3Ffamily%3DFira%2BSans;" parent="1" vertex="1">
          <mxGeometry x="511" y="92.5" width="20" height="15" as="geometry" />
        </mxCell>
        <mxCell id="1w1bXeT0Ze49yQfpAvAs-71" value="" style="verticalLabelPosition=bottom;verticalAlign=top;html=1;shape=mxgraph.basic.rect;fillColor2=none;strokeWidth=1;size=20;indent=5;shadow=0;sketch=1;curveFitting=1;jiggle=2;fontFamily=Fira Sans;fontSource=https%3A%2F%2Ffonts.googleapis.com%2Fcss%3Ffamily%3DFira%2BSans;" parent="1" vertex="1">
          <mxGeometry x="701" y="92.5" width="20" height="15" as="geometry" />
        </mxCell>
        <mxCell id="1w1bXeT0Ze49yQfpAvAs-72" value="" style="shape=datastore;whiteSpace=wrap;html=1;sketch=1;curveFitting=1;jiggle=2;fontFamily=Fira Sans;fontSource=https%3A%2F%2Ffonts.googleapis.com%2Fcss%3Ffamily%3DFira%2BSans;" parent="1" vertex="1">
          <mxGeometry x="181" y="350" width="20" height="20" as="geometry" />
        </mxCell>
        <mxCell id="1w1bXeT0Ze49yQfpAvAs-73" value="" style="shape=datastore;whiteSpace=wrap;html=1;sketch=1;curveFitting=1;jiggle=2;fontFamily=Fira Sans;fontSource=https%3A%2F%2Ffonts.googleapis.com%2Fcss%3Ffamily%3DFira%2BSans;" parent="1" vertex="1">
          <mxGeometry x="398" y="350" width="20" height="20" as="geometry" />
        </mxCell>
        <mxCell id="1w1bXeT0Ze49yQfpAvAs-74" value="" style="shape=datastore;whiteSpace=wrap;html=1;sketch=1;curveFitting=1;jiggle=2;fontFamily=Fira Sans;fontSource=https%3A%2F%2Ffonts.googleapis.com%2Fcss%3Ffamily%3DFira%2BSans;" parent="1" vertex="1">
          <mxGeometry x="591" y="350" width="20" height="20" as="geometry" />
        </mxCell>
        <mxCell id="1w1bXeT0Ze49yQfpAvAs-78" value="" style="ellipse;whiteSpace=wrap;html=1;fillColor=#A136C1;strokeColor=none;gradientColor=none;rounded=0;labelBackgroundColor=none;fontFamily=Fira Sans;fontSource=https%3A%2F%2Ffonts.googleapis.com%2Fcss%3Ffamily%3DFira%2BSans;" parent="1" vertex="1">
          <mxGeometry x="576" y="465" width="50" height="50" as="geometry" />
        </mxCell>
        <mxCell id="1w1bXeT0Ze49yQfpAvAs-84" value="" style="verticalLabelPosition=bottom;verticalAlign=top;html=1;shape=mxgraph.basic.pie;startAngle=0.2;endAngle=0.9;sketch=1;curveFitting=1;jiggle=2;rotation=30;fontFamily=Fira Sans;fontSource=https%3A%2F%2Ffonts.googleapis.com%2Fcss%3Ffamily%3DFira%2BSans;" parent="1" vertex="1">
          <mxGeometry x="591" y="478.5" width="23" height="23" as="geometry" />
        </mxCell>
        <mxCell id="1w1bXeT0Ze49yQfpAvAs-93" value="" style="edgeStyle=orthogonalEdgeStyle;rounded=0;orthogonalLoop=1;jettySize=auto;html=1;entryX=0;entryY=0.5;entryDx=0;entryDy=0;" parent="1" source="1w1bXeT0Ze49yQfpAvAs-90" target="B7Z5bQgwyDmxNRHCM2Lo-179" edge="1">
          <mxGeometry relative="1" as="geometry">
            <mxPoint x="111" y="100" as="targetPoint" />
          </mxGeometry>
        </mxCell>
        <mxCell id="1w1bXeT0Ze49yQfpAvAs-94" value="Collect data&lt;br&gt;from the field" style="edgeLabel;html=1;align=center;verticalAlign=middle;resizable=0;points=[];fontFamily=Fira Sans;fontSource=https%3A%2F%2Ffonts.googleapis.com%2Fcss%3Ffamily%3DFira%2BSans;" parent="1w1bXeT0Ze49yQfpAvAs-93" vertex="1" connectable="0">
          <mxGeometry x="0.0222" y="1" relative="1" as="geometry">
            <mxPoint x="-7" y="1" as="offset" />
          </mxGeometry>
        </mxCell>
        <mxCell id="1w1bXeT0Ze49yQfpAvAs-90" value="" style="ellipse;whiteSpace=wrap;html=1;fillColor=#00E32D;strokeColor=none;gradientColor=none;rounded=0;fontFamily=Fira Sans;fontSource=https%3A%2F%2Ffonts.googleapis.com%2Fcss%3Ffamily%3DFira%2BSans;" parent="1" vertex="1">
          <mxGeometry x="72" y="75" width="50" height="50" as="geometry" />
        </mxCell>
        <mxCell id="1w1bXeT0Ze49yQfpAvAs-101" value="" style="group;glass=0;shadow=0;sketch=1;curveFitting=1;jiggle=2;" parent="1" vertex="1" connectable="0">
          <mxGeometry x="85" y="88" width="25" height="25" as="geometry" />
        </mxCell>
        <mxCell id="1w1bXeT0Ze49yQfpAvAs-97" value="" style="rounded=0;whiteSpace=wrap;html=1;sketch=1;curveFitting=1;jiggle=2;" parent="1w1bXeT0Ze49yQfpAvAs-101" vertex="1">
          <mxGeometry x="11.071428571428571" y="10.197368421052632" width="3.571428571428571" height="14.802631578947368" as="geometry" />
        </mxCell>
        <mxCell id="1w1bXeT0Ze49yQfpAvAs-98" value="" style="ellipse;shape=cloud;whiteSpace=wrap;html=1;sketch=1;curveFitting=1;jiggle=2;" parent="1w1bXeT0Ze49yQfpAvAs-101" vertex="1">
          <mxGeometry x="-1" y="1" width="25" height="19.73684210526316" as="geometry" />
        </mxCell>
      </root>
    </mxGraphModel>
  </diagram>
</mxfile>
